<svg viewBox="0 0 400 60" width="400" height="60" xmlns:xlink="http://www.w3.org/1999/xlink" xmlns="http://www.w3.org/2000/svg">
  <path style="fill:#fff;stroke-width:1.86515" d="M10.398.004A10.372 10.391 0 0 0 0 10.419v28.788h.786a10.374 10.393 0 0 0 10.396-10.414V15.331c.02-2.184 1.977-3.965 4.124-4.126h40.596V10.4A10.372 10.391 0 0 0 45.508 0ZM20.93 16.806a4.15 4.158 0 0 0-4.16 4.167v14.07a4.15 4.15 0 0 0 4.16 4.164h14.044a4.148 4.156 0 0 0 4.16-4.164v-14.07a4.148 4.156 0 0 0-4.16-4.167zm34.188 0a10.374 10.393 0 0 0-10.396 10.417v13.423c0 2.203-1.97 4.004-4.128 4.163H0v.788A10.374 10.393 0 0 0 10.398 56.01h35.11a10.372 10.391 0 0 0 10.394-10.417V16.81Z"/>
  <path d="M106.61 8.776H74.537v9.742h10.617v29.446h10.84V18.518h10.616zm22.882 8.958-1.062 2.352c-2.458-2.072-5.642-3.248-9.218-3.248-9.22 0-15.813 6.662-15.813 16.012 0 9.403 6.593 16.12 15.813 16.12 3.52 0 6.648-1.12 9.108-3.134l.895 2.128h8.044v-30.23ZM120.61 39.79c-3.913 0-6.762-2.968-6.762-6.941 0-3.92 2.851-6.831 6.762-6.831 3.912 0 6.76 2.912 6.76 6.83 0 3.975-2.85 6.942-6.76 6.942m51.213 8.173-10.06-15.954 9.389-14.276h-11.343l-4.528 7.613-4.357-7.613h-11.51l9.274 14.556-10 15.674h11.51l5.029-8.901 4.973 8.901zm1.425 0h10.394v-30.23h-10.394zm47.828-30.23-1.341 2.576a14.628 14.655 0 0 0-9.5-3.529c-8.661 0-15.086 6.607-15.086 15.229 0 8.733 6.425 15.17 15.086 15.17a15.094 15.122 0 0 0 7.878-2.24v.896c0 3.584-2.795 5.823-6.313 5.823-2.515 0-5.085-1.12-5.812-3.137h-10C197.383 55.69 203.361 60 211.91 60c9.945 0 16.148-5.879 16.148-15.338V17.79Zm-9.108 20.88c-3.802 0-6.483-2.744-6.483-6.604 0-3.809 2.74-6.607 6.483-6.607s6.425 2.8 6.425 6.607c0 3.862-2.683 6.605-6.425 6.605m52.274-6.045c0-8.846-6.706-15.789-16.428-15.789-9.5 0-16.372 6.831-16.372 16.069s6.929 16.12 16.372 16.12c7.543 0 13.689-4.308 15.813-11.195h-10.394c-.95 1.792-3.017 2.856-5.419 2.856-3.298 0-5.476-1.792-6.147-5.265h22.407c.112-.95.168-1.846.168-2.796m-16.428-7.615c3.129 0 5.307 1.624 6.202 4.648h-12.181c.838-3.024 2.962-4.648 5.98-4.648m31.32 24.015c8.046 0 13.353-4.14 13.353-10.467 0-7.613-6.314-8.622-11.12-9.462-2.85-.504-5.14-.952-5.14-2.63 0-1.4 1.118-2.24 2.795-2.24 1.844 0 3.128.896 3.128 2.8h9.78c-.112-6.103-5.143-10.19-12.796-10.19-7.711 0-12.908 3.921-12.908 9.966 0 7.333 6.201 8.733 10.895 9.517 2.907.448 5.197.952 5.197 2.687 0 1.568-1.453 2.352-2.963 2.352-1.954 0-3.518-1.008-3.518-3.248h-10.003c.112 6.55 5.086 10.915 13.3 10.915m32.827-10.075c-2.18 0-3.52-1.344-3.52-3.473v-9.627h7.32v-8.061h-7.543v-8.79h-2.18l-13.52 14.39V25.8h5.533v11.36c0 6.72 4.079 10.806 10.728 10.806h7.151v-9.07zm7.35 9.07h10.394V17.733H319.31zm30.595 1.005c9.833 0 16.929-6.773 16.929-16.12 0-9.35-7.096-16.069-16.93-16.069-9.832 0-16.874 6.72-16.874 16.069s7.04 16.12 16.875 16.12m0-9.347c-3.746 0-6.483-2.744-6.483-6.719 0-4.03 2.74-6.773 6.483-6.773 3.8 0 6.537 2.8 6.537 6.773 0 3.976-2.74 6.719-6.537 6.719m38.472-22.73c-3.913 0-7.264 1.457-9.5 3.977l-1.397-3.136h-7.32v30.23h10.394V31.842c0-3.865 1.845-6.103 5.086-6.103 2.625 0 3.967 1.736 3.967 5.263v16.962H400V29.545c0-7.669-4.638-12.651-11.622-12.651" style="fill:#fff;stroke-width:1.86515"/>
  <ellipse style="fill:#fff;stroke-width:1.86515" cx="178.444" cy="9.629" rx="5.197" ry="5.207"/>
  <ellipse style="fill:#fff;stroke-width:1.86515" cx="324.519" cy="9.516" rx="5.197" ry="5.207"/>
</svg>
