<svg viewBox="0 0 500 500" width="500" height="500" xmlns="http://www.w3.org/2000/svg"><defs><linearGradient id="a" gradientUnits="userSpaceOnUse" gradientTransform="matrix(2.37216 0 0 3.63609 -23.083 -213.402)" x1="9.733" y1="58.701" x2="220.506" y2="58.701"><stop stop-color="#0559d2" offset="0"/><stop stop-color="#337aef" offset="1"/></linearGradient></defs><path style="fill:url(#a);stroke-width:16.6661" d="M93 .034A92.767 92.76 0 0 0 0 93.01v256.982h7.034a92.783 92.777 0 0 0 92.983-92.96V136.858c.183-19.5 17.683-35.398 36.883-36.831H500v-7.2A92.767 92.76 0 0 0 407.033 0Zm94.2 149.99A37.117 37.114 0 0 0 150 187.22v125.608c0 20.599 16.6 37.164 37.2 37.164h125.617a37.1 37.097 0 0 0 37.2-37.164V187.221a37.1 37.097 0 0 0-37.2-37.198zm305.783 0A92.783 92.777 0 0 0 400 243.016v119.825c0 19.666-17.617 35.748-36.917 37.165H0v7.032A92.783 92.777 0 0 0 93 500h314.033A92.767 92.76 0 0 0 500 407.007v-256.95Z"/></svg>
